<svg width="200" height="200" viewBox="0 0 200 200" fill="none" xmlns="http://www.w3.org/2000/svg">
  <rect width="200" height="200" rx="100" fill="url(#paint0_linear)"/>
  <path d="M100 60C77.9086 60 60 77.9086 60 100C60 122.091 77.9086 140 100 140C122.091 140 140 122.091 140 100C140 77.9086 122.091 60 100 60ZM100 120C89.0086 120 80 110.991 80 100C80 89.0086 89.0086 80 100 80C110.991 80 120 89.0086 120 100C120 110.991 110.991 120 100 120Z" fill="white"/>
  <defs>
    <linearGradient id="paint0_linear" x1="0" y1="0" x2="200" y2="200" gradientUnits="userSpaceOnUse">
      <stop stop-color="#FF5722"/>
      <stop offset="1" stop-color="#FFC107"/>
    </linearGradient>
  </defs>
</svg> 